<svg xmlns="http://www.w3.org/2000/svg" viewBox="0 0 35.1 35.6"><defs><style>.a{fill:#673ab7;}.b{fill:#03a9f4;}</style></defs><title>Kobiton_onDark_noText2</title><path class="a" d="M7.3,17.5q0-1.7.1-3.3a1.3,1.3,0,0,0-.4-1,1.3,1.3,0,0,0-1-.3l-4.8.7A1.3,1.3,0,0,0,0,14.9v6.5a1.3,1.3,0,0,0,1.1,1.3l4.9,0.7a1.3,1.3,0,0,0,1-.3,1.3,1.3,0,0,0,.4-1q-0.1-2.2-.1-4.5h0Z" transform="translate(0 -0.3)"/><path class="a" d="M22.7,6.3c-0.2-1.9-.4-3.6-0.7-4.9A1.3,1.3,0,0,0,20.8.3H14.2A1.3,1.3,0,0,0,13,1.4c-0.2,1.4-.5,3-0.7,5a1.3,1.3,0,0,0,.3,1.1,1.3,1.3,0,0,0,1,.4h7.8a1.3,1.3,0,0,0,1-.4,1.3,1.3,0,0,0,.4-1h0Z" transform="translate(0 -0.3)"/><path class="a" d="M35.1,21.4V14.8A1.3,1.3,0,0,0,34,13.4l-4.9-.7a1.3,1.3,0,0,0-1,.3,1.3,1.3,0,0,0-.4,1c0.1,1.5.1,3.2,0.1,4.9s0,2,0,2.9a1.3,1.3,0,0,0,.4,1,1.3,1.3,0,0,0,1,.3l4.8-.6a1.3,1.3,0,0,0,1.1-1.3h0Z" transform="translate(0 -0.3)"/><path class="a" d="M12.3,29.8q0.3,2.9.6,5a1.3,1.3,0,0,0,1.3,1.1h6.7a1.3,1.3,0,0,0,1.3-1.1c0.2-1.4.4-3.1,0.7-5a1.3,1.3,0,0,0-.3-1.1,1.3,1.3,0,0,0-1-.4H13.6a1.3,1.3,0,0,0-1,.4,1.3,1.3,0,0,0-.3,1h0Z" transform="translate(0 -0.3)"/><path class="a" d="M6.7,27.9l-5.1-.7a1.3,1.3,0,0,0-1.1.3,1.3,1.3,0,0,0-.5,1v6a1.3,1.3,0,0,0,1.3,1.3H7.2a1.3,1.3,0,0,0,1-.4,1.3,1.3,0,0,0,.3-1.1c-0.2-1.5-.4-3.3-0.6-5.2a1.3,1.3,0,0,0-1.2-1.2h0Z" transform="translate(0 -0.3)"/><path class="a" d="M7.8,7.1c0.2-2,.4-3.8.7-5.3A1.3,1.3,0,0,0,8.2.7a1.3,1.3,0,0,0-1-.5H1.3A1.3,1.3,0,0,0,0,1.6v6a1.3,1.3,0,0,0,.5,1,1.3,1.3,0,0,0,1.1.3l5.1-.6A1.3,1.3,0,0,0,7.8,7.1h0Z" transform="translate(0 -0.3)"/><path class="b" d="M33.6,27.2l-4.6.6a29.7,29.7,0,0,1-5.6-6.2h0c0-.8,0-1.7,0-2.5s0-2.9-.1-4.3h0.1a29,29,0,0,1,5.8-6.4l4.4,0.6a1.3,1.3,0,0,0,1.1-.3,1.3,1.3,0,0,0,.5-1V1.6A1.3,1.3,0,0,0,33.8.3H27.9a1.3,1.3,0,0,0-1,.5,1.3,1.3,0,0,0-.3,1.1c0.2,1.4.4,2.9,0.6,4.7A30.9,30.9,0,0,0,22,12.3H13a1.3,1.3,0,0,0-1.2,1.3q-0.1,1.9-.1,4c0,1.8,0,3.5.1,5a1.3,1.3,0,0,0,1.2,1.3h8.7a30,30,0,0,0,5.5,5.9c-0.2,1.7-.4,3.2-0.6,4.6a1.3,1.3,0,0,0,.3,1.1,1.3,1.3,0,0,0,1,.5h5.8a1.3,1.3,0,0,0,1.3-1.3v-6a1.3,1.3,0,0,0-.5-1,1.3,1.3,0,0,0-1.1-.3h0Z" transform="translate(0 -0.3)"/></svg>